<svg width="19" height="19" viewBox="0 0 19 19" fill="none" xmlns="http://www.w3.org/2000/svg">
<path d="M10.5492 9.50079L18.7821 1.2678C19.072 0.977934 19.072 0.507982 18.7821 0.218159C18.4923 -0.0716652 18.0223 -0.0717023 17.7325 0.218159L9.4995 8.45115L1.26654 0.218159C0.976683 -0.0717023 0.506731 -0.0717023 0.216907 0.218159C-0.0729164 0.508019 -0.0729535 0.977971 0.216907 1.2678L8.44987 9.50075L0.216907 17.7337C-0.0729535 18.0236 -0.0729535 18.4936 0.216907 18.7834C0.361819 18.9283 0.551782 19.0007 0.741744 19.0007C0.931707 19.0007 1.12163 18.9283 1.26658 18.7834L9.4995 10.5504L17.7325 18.7834C17.8774 18.9283 18.0673 19.0007 18.2573 19.0007C18.4473 19.0007 18.6372 18.9283 18.7821 18.7834C19.072 18.4935 19.072 18.0236 18.7821 17.7337L10.5492 9.50079Z" fill="#276EF1"/>
</svg>
