<svg width="13" height="17" viewBox="0 0 13 17" fill="none" xmlns="http://www.w3.org/2000/svg">
<path d="M6.50005 0C3.3755 0 0.833374 2.54213 0.833374 5.66668C0.833374 6.60467 1.06789 7.53469 1.51371 8.35958L6.19017 16.8174C6.25242 16.9301 6.37106 17 6.50005 17C6.62905 17 6.74768 16.9301 6.80994 16.8174L11.4881 8.35679C11.9322 7.53469 12.1667 6.60463 12.1667 5.66664C12.1667 2.54213 9.6246 0 6.50005 0ZM6.50005 8.5C4.93778 8.5 3.66673 7.22895 3.66673 5.66668C3.66673 4.1044 4.93778 2.83336 6.50005 2.83336C8.06233 2.83336 9.33337 4.1044 9.33337 5.66668C9.33337 7.22895 8.06233 8.5 6.50005 8.5Z" fill="#276EF1"/>
</svg>
