<svg width="30" height="30" viewBox="0 0 30 30" fill="none" xmlns="http://www.w3.org/2000/svg">
<path d="M19.2146 12.7466C21.0363 11.9714 23.4109 11.4986 26.892 11.5968C25.2252 9.47771 23.7348 7.93095 22.8419 6.37681C20.3734 7.80018 18.5651 9.27351 17.2185 10.7663C16.5982 10.441 15.9044 10.2405 15.1627 10.2154C15.3944 8.26525 16.1599 5.98049 17.9994 2.99728C15.999 2.99728 13.9999 2.99728 11.9995 2.99728C11.5807 6.54581 11.8543 9.01063 12.4531 10.9427C11.8352 11.3303 11.3168 11.856 10.9302 12.4763C9.35929 11.3326 7.77062 9.72483 6.12897 7.45683C5.3058 9.2953 4.48866 10.5312 3.1062 11.5921C5.95126 13.7163 8.23367 14.7302 10.2173 15.1849C10.2472 15.9326 10.4514 16.6261 10.7837 17.2477C8.96195 18.0229 6.58733 18.4944 3.1062 18.3961C4.77166 20.5152 6.26208 22.062 7.15735 23.6161C9.62351 22.1928 11.4328 20.7218 12.7781 19.229C13.3984 19.5543 14.0921 19.7548 14.8361 19.7799C14.6045 21.7301 13.839 24.0148 11.9995 26.998C13.9999 26.998 15.999 26.998 17.9994 26.998C18.4195 23.4495 18.1446 20.9847 17.5447 19.0527C18.164 18.665 18.6811 18.1393 19.0687 17.519C20.6406 18.6614 22.2306 20.2705 23.8713 22.5351C24.6944 20.698 25.5106 19.4607 26.894 18.4012C24.049 16.277 21.7676 15.2644 19.7815 14.8084C19.7507 14.063 19.5468 13.3692 19.2146 12.7466ZM15.0001 16.5C14.1722 16.5 13.5 15.8267 13.5 14.9998C13.5 14.173 14.1719 13.4997 15.0001 13.4997C15.827 13.4997 16.5003 14.173 16.5003 14.9998C16.4999 15.8267 15.8266 16.5 15.0001 16.5Z" fill="#276EF1"/>
<path d="M27.6002 0H2.40011C1.08001 0 0 1.08001 0 2.40011V27.6002C0 28.9203 1.08001 30.0003 2.40011 30.0003H27.6002C28.9203 30.0003 30.0003 28.9203 30.0003 27.6002V2.40011C30 1.08001 28.92 0 27.6002 0ZM2.10001 1.20005C2.59794 1.20005 2.99997 1.60208 2.99997 2.10001C2.99997 2.59794 2.59794 2.99997 2.10001 2.99997C1.60208 2.99997 1.20005 2.59794 1.20005 2.10001C1.20005 1.60208 1.60208 1.20005 2.10001 1.20005ZM2.10001 28.7999C1.60208 28.7999 1.20005 28.3979 1.20005 27.9C1.20005 27.4021 1.60208 27 2.10001 27C2.59794 27 2.99997 27.4021 2.99997 27.9C2.99997 28.3983 2.59794 28.7999 2.10001 28.7999ZM15.0002 28.2001C7.71602 28.2001 1.80025 22.2947 1.80025 15.0002C1.80025 7.70563 7.71602 1.79991 15.0002 1.79991C22.2843 1.79991 28.2001 7.70529 28.2001 15.0002C28.2001 22.295 22.284 28.2001 15.0002 28.2001ZM27.9 28.7999C27.4021 28.7999 27 28.3979 27 27.9C27 27.4021 27.4021 27 27.9 27C28.3979 27 28.7999 27.4021 28.7999 27.9C28.7999 28.3983 28.3983 28.7999 27.9 28.7999ZM27.9 2.99997C27.4021 2.99997 27 2.59794 27 2.10001C27 1.60208 27.4021 1.20005 27.9 1.20005C28.3979 1.20005 28.7999 1.60208 28.7999 2.10001C28.7999 2.59794 28.3983 2.99997 27.9 2.99997Z" fill="#276EF1"/>
</svg>
