<svg width="36" height="36" viewBox="0 0 36 36" fill="none" xmlns="http://www.w3.org/2000/svg">
<circle cx="18" cy="18" r="18" fill="#276EF1"/>
<g clip-path="url(#clip0)">
<rect width="15" height="15" transform="translate(11 10)" fill="#276EF1"/>
<path d="M14.3858 17.1046C15.8124 19.5357 16.7635 20.5082 19.1412 21.9668L21.0433 20.0219C22.0147 20.2756 23.2409 20.6239 24.2252 20.6198C24.5533 20.6172 24.88 20.9526 24.8889 21.273L24.8668 24.3071C24.8654 24.6426 24.536 24.9795 24.2017 25C16.0059 25.0147 11.2679 20.1703 11.0016 11.7742C10.9744 11.4498 11.3038 11.1129 11.6319 11.1116H14.882C15.2408 11.0974 15.5676 11.4315 15.6454 11.6355C15.5622 12.7734 16.0341 14.1614 16.288 15.1604L14.3858 17.1046Z" fill="white"/>
</g>
<defs>
<clipPath id="clip0">
<rect width="15" height="15" fill="white" transform="translate(11 10)"/>
</clipPath>
</defs>
</svg>
