<svg width="60" height="34" viewBox="0 0 60 34" fill="none" xmlns="http://www.w3.org/2000/svg">
<path d="M22.2318 23.7988C19.4623 23.7988 17.2241 26.0449 17.2241 28.8145C17.2241 31.5759 19.4623 33.8222 22.2318 33.8222C25.0013 33.8222 27.2394 31.5759 27.2394 28.8145C27.2393 26.0449 25.0013 23.7988 22.2318 23.7988ZM22.2318 31.3184C20.847 31.3184 19.7278 30.1911 19.7278 28.8143C19.7278 27.4297 20.847 26.3105 22.2318 26.3105C23.6165 26.3105 24.7356 27.4297 24.7356 28.8143C24.7355 30.1911 23.6165 31.3184 22.2318 31.3184ZM60 20.094V25.4412C60 26.775 58.9187 27.8564 57.5847 27.8564H55.0004C54.5334 24.6521 51.7721 22.1886 48.4389 22.1886C45.114 22.1886 42.3525 24.6522 41.8855 27.8564H28.7868C28.3198 24.6521 25.5583 22.1886 22.2333 22.1886C18.9083 22.1886 16.1469 24.6522 15.68 27.8564H12.4435C11.1096 27.8564 10.0283 26.7751 10.0283 25.4412V20.094H60ZM48.4454 23.7988C45.6759 23.7988 43.4297 26.0449 43.4297 28.8145C43.4297 31.5759 45.676 33.8222 48.4454 33.8222C51.2068 33.8222 53.4529 31.5759 53.4529 28.8145C53.4529 26.0449 51.2068 23.7988 48.4454 23.7988ZM48.4454 31.3184C47.0606 31.3184 45.9416 30.1911 45.9416 28.8143C45.9416 27.4297 47.0606 26.3105 48.4454 26.3105C49.8221 26.3105 50.9492 27.4297 50.9492 28.8143C50.9492 30.1911 49.8221 31.3184 48.4454 31.3184ZM59.0483 14.7093L49.5565 5.322C48.9526 4.72621 48.1395 4.38808 47.2941 4.38808H42.5039V2.59268C42.5039 1.25631 41.4251 0.17749 40.0887 0.17749H12.4419C11.1134 0.17749 10.0267 1.25641 10.0267 2.59268V2.97112L0.22549 4.10072L17.5927 6.36229L0 8.10993L17.5308 10.6024L0 12.1224L10.0273 14.0136L10.0266 18.7589H59.9983V16.9957C59.9983 16.1342 59.6522 15.3132 59.0483 14.7093ZM54.9102 15.0233H45.7242C45.5149 15.0233 45.3458 14.8542 45.3458 14.6449V7.55209C45.3458 7.34278 45.5149 7.17366 45.7242 7.17366H47.4713C47.5678 7.17366 47.6645 7.21396 47.737 7.27837L55.1679 14.3712C55.4174 14.6046 55.2482 15.0233 54.9102 15.0233Z" fill="#276EF1"/>
</svg>
