<svg width="60" height="42" viewBox="0 0 60 42" fill="none" xmlns="http://www.w3.org/2000/svg">
<path d="M54.4471 31.5568V29.3354V16.0009V2.66619C54.4471 1.44607 53.4484 0.444824 52.223 0.444824H7.77906C6.5564 0.444824 5.55246 1.441 5.55246 2.66619V16.0007V29.3353V31.5566L0 38.224C0 40.0606 1.49196 41.5551 3.3311 41.5551H56.6689C58.508 41.5551 60 40.0606 60 38.224L54.4471 31.5568ZM34.4456 40.4481H25.5595C25.2528 40.4481 25.0011 40.2015 25.0011 39.8922C25.0011 39.5829 25.2528 39.3363 25.5595 39.3363H34.4456C34.7523 39.3363 35.004 39.5829 35.004 39.8922C34.9989 40.2015 34.7523 40.4481 34.4456 40.4481ZM20.8394 38.2266L22.5351 36.1911H37.4649L39.1606 38.2266H20.8394ZM51.3174 27.6268C51.3174 28.6985 50.4445 29.5667 49.3801 29.5667H10.6196C9.55523 29.5667 8.68229 28.6912 8.68229 27.6268V4.37956C8.68229 3.30789 9.55523 2.43971 10.6196 2.43971H49.3801C50.4445 2.43971 51.3174 3.31265 51.3174 4.37956V27.6268Z" fill="#276EF1"/>
<path d="M41.3066 16.3932L43.0023 13.8471L41.1205 11.9601L38.5718 13.6559C38.3001 13.5176 38.0005 13.4319 37.714 13.3312L37.1073 10.2996H34.4379L33.8317 13.3312C33.5424 13.4345 33.2481 13.5173 32.9739 13.6559L30.4251 11.9601L28.5408 13.8419L30.2366 16.3932C30.0957 16.6675 29.9798 16.9594 29.8816 17.2563L26.8802 17.8574V20.5268L29.8841 21.1258C29.9823 21.4253 30.0979 21.7095 30.2391 21.9915L28.5406 24.5349L30.4277 26.422L32.9764 24.721C33.2455 24.8644 33.5451 24.9475 33.8343 25.0456L34.4404 28.0824H37.1098L37.716 25.0456C38.0028 24.9475 38.2971 24.8644 38.5739 24.721L41.1199 26.422L43.0069 24.5349L41.3085 21.9915C41.4519 21.7145 41.5653 21.4253 41.6634 21.1258L44.6648 20.5268L44.6699 17.8574L41.6634 17.2563C41.5629 16.9594 41.45 16.6701 41.3066 16.3932ZM35.7741 22.3058C34.0531 22.3058 32.6644 20.912 32.6644 19.191C32.6644 17.4751 34.0582 16.0839 35.7741 16.0839C37.49 16.0839 38.8889 17.4777 38.8889 19.191C38.8884 20.9095 37.4946 22.3058 35.7741 22.3058Z" fill="#276EF1"/>
<path d="M25.8811 13.1801C25.9263 12.9689 25.9464 12.7522 25.9591 12.526L27.8913 11.5725L27.4109 9.76369L25.2625 9.90453C25.1418 9.71595 25.0057 9.53721 24.8649 9.37639L25.5518 7.3409L23.9263 6.4023L22.5098 8.02003C22.3013 7.97737 22.0819 7.96976 21.8656 7.95738L20.8993 6.00977L19.0879 6.49271L19.2287 8.66379C19.055 8.78703 18.8639 8.90011 18.7052 9.03619L16.6646 8.34929L15.7285 9.97479L17.3437 11.3938C17.2985 11.605 17.2784 11.8217 17.2682 12.0426L15.3309 12.9961L15.8139 14.8127L17.9623 14.6719C18.083 14.858 18.2165 15.0342 18.3574 15.1928L17.673 17.2333L19.2985 18.1694L20.715 16.5542C20.9215 16.5969 21.1449 16.6019 21.3592 16.6122L22.3256 18.5619L24.1344 18.0815L23.9961 15.9104C24.1672 15.7872 24.3558 15.6766 24.5196 15.538L26.5577 16.2197L27.4963 14.5969L25.8811 13.1801ZM22.1827 14.4004C21.0128 14.7122 19.8179 14.0207 19.5056 12.8531C19.1938 11.6858 19.8833 10.4883 21.0504 10.1735C22.2202 9.86424 23.4151 10.5557 23.73 11.7208C24.0424 12.8857 23.3477 14.0859 22.1827 14.4004Z" fill="#276EF1"/>
</svg>
