<svg width="60" height="44" viewBox="0 0 60 44" fill="none" xmlns="http://www.w3.org/2000/svg">
<path d="M60 5.69069V23.8533C60 23.8533 56.1128 24.6192 55.312 24.7199C54.5137 24.8204 52.0051 25.6304 50.187 23.8829C47.3832 21.1957 37.4216 11.289 37.4216 11.289C37.4216 11.289 35.704 9.60359 32.9461 11.0602C30.4145 12.3945 26.6618 14.35 25.0943 15.1115C22.1311 16.6886 19.6752 14.1863 19.6752 12.2802C19.6752 10.8017 20.5978 9.79826 21.9166 9.06028C25.4908 6.89355 33.0241 2.66504 36.1617 0.997924C38.0689 -0.0164381 39.443 -0.103359 42.0614 2.10248C45.2862 4.81458 48.1561 7.28675 48.1561 7.28675C48.1561 7.28675 49.0921 8.06795 50.5849 7.75331C54.2506 6.97829 60 5.69069 60 5.69069ZM20.3499 36.4655C20.8324 35.2261 20.6711 33.8398 19.7462 32.8888C18.9151 32.0381 17.7018 31.8139 16.5448 32.079C16.8684 30.9315 16.6897 29.7101 15.8541 28.8481C15.0205 27.9996 13.8094 27.7709 12.6526 28.0385C12.9738 26.8927 12.7956 25.6714 11.9595 24.812C10.6504 23.4692 8.38595 23.5268 6.89836 24.9448C5.41865 26.3647 4.47075 28.9372 5.79139 30.4515C7.10985 31.9581 8.6248 31.0414 9.77971 30.7782C9.45842 31.924 8.49575 32.9898 9.68129 34.4897C10.8657 35.9902 12.5146 35.0798 13.6707 34.8191C13.3483 35.9605 12.4277 37.1334 13.5677 38.524C14.718 39.9188 16.602 39.1756 17.8464 38.7891C17.3662 40.0238 16.3383 41.3547 17.6589 42.8462C18.9775 44.3484 22.0247 43.6534 23.5131 42.2333C24.9976 40.8133 25.14 38.563 23.8344 37.2159C22.933 36.2918 21.5892 36.0768 20.3499 36.4655ZM47.509 27.0163C36.7492 16.2563 41.8101 21.3194 36.0197 15.5165C36.0197 15.5165 34.2795 13.784 31.9859 14.7904C30.3758 15.4959 28.3029 16.4575 26.7431 17.1916C25.0292 18.0904 23.7957 18.3686 23.2165 18.3647C19.9031 18.343 17.2149 15.6798 17.2149 12.3697C17.2149 10.2223 18.3549 8.3528 20.0552 7.29159C22.4461 5.63706 27.9495 2.70983 27.9495 2.70983C27.9495 2.70983 26.2729 0.585351 22.6002 0.585351C18.9286 0.585351 11.2575 5.61079 11.2575 5.61079C11.2575 5.61079 9.08132 7.00468 5.97915 5.74917L0 3.66705V24.4503C0 24.4503 1.70731 24.9444 3.24138 25.571C3.58786 24.583 4.14691 23.6705 4.92242 22.9169C7.46746 20.4928 11.6859 20.4676 14.0014 22.8519C14.699 23.5767 15.1858 24.4413 15.4342 25.3971C16.3672 25.6851 17.2123 26.1952 17.8915 26.895C18.5911 27.6149 19.076 28.4844 19.3265 29.4353C20.2584 29.7235 21.1023 30.2356 21.7838 30.9358C22.5512 31.7272 23.0624 32.6831 23.3011 33.7187C24.2753 34.0025 25.1557 34.5305 25.8647 35.2554C27.2563 36.6847 27.7502 38.624 27.451 40.4946C27.4534 40.4946 27.458 40.4946 27.4602 40.4988C27.4829 40.5286 28.3223 41.4644 28.8458 41.9922C29.8717 43.0191 31.5468 43.0191 32.5758 41.9922C33.598 40.9658 33.6025 39.2939 32.5758 38.2622C32.539 38.2256 28.8747 34.3928 29.1696 34.0956C29.4624 33.8005 34.1308 38.6581 34.2177 38.747C35.2423 39.7717 36.9163 39.7717 37.9454 38.747C38.9721 37.7205 38.9699 36.0487 37.9454 35.0194C37.895 34.9715 37.6849 34.7702 37.6069 34.69C37.6069 34.69 32.9783 30.5667 33.3306 30.2144C33.6872 29.86 39.4366 35.2253 39.4459 35.2253C40.4794 36.156 42.0714 36.1491 43.0656 35.1544C44.033 34.1871 44.0537 32.6571 43.1961 31.626C43.178 31.5711 38.8145 27.0111 39.155 26.668C39.5005 26.3204 43.8181 30.7662 43.8272 30.7754C44.8495 31.7999 46.5258 31.7999 47.5549 30.7754C48.5794 29.7508 48.5794 28.0769 47.5549 27.0431C47.541 27.0344 47.5227 27.0252 47.509 27.0163Z" fill="#276EF1"/>
</svg>
