<svg width="50" height="60" viewBox="0 0 50 60" fill="none" xmlns="http://www.w3.org/2000/svg">
<path d="M25.4544 4.28569H24.1344C23.4291 4.28569 22.8573 3.71382 22.8573 3.00863V2.96569C22.8573 1.32775 21.5295 0 19.8915 0H19.823C18.1851 0 16.8573 1.32775 16.8573 2.96569V3.00863C16.8573 3.71392 16.2854 4.28578 15.5802 4.28578H14.2602C12.8543 4.28578 11.7146 5.42549 11.7146 6.83147V6.88294C11.7146 8.28892 12.8543 9.42863 14.2602 9.42863H25.4547C26.8605 9.42863 28.0002 8.28882 28.0002 6.88294V6.83137C28.0001 5.42549 26.8604 4.28569 25.4544 4.28569ZM19.8572 4.28569C19.1471 4.28569 18.5715 3.71 18.5715 3C18.5715 2.2899 19.1472 1.71422 19.8572 1.71422C20.5673 1.71422 21.1429 2.2899 21.1429 3C21.1429 3.7101 20.5673 4.28569 19.8572 4.28569ZM25.5813 54H4.00006C2.10653 54 0.571533 52.465 0.571533 50.5715V9.42853C0.571533 7.535 2.10653 6 3.1429 6H10.0894C10.0314 6.28471 10.0002 6.5798 10.0002 6.88314C10.0002 9.23196 11.9111 11.1429 14.2603 11.1429H25.4543C27.8036 11.1429 29.7144 9.23196 29.7144 6.83127C29.7144 6.54667 29.6839 6.26922 29.6305 6H34.8572C37.6081 6 39.143 7.535 39.143 9.42853V35.1862C38.8581 35.1684 38.5752 35.1428 38.2859 35.1428C37.1002 35.1428 35.9554 35.3099 34.8572 35.5942V15.4285H4.85722V49.7143H24.6149C24.7088 51.2209 25.038 52.6629 25.5813 54ZM38.2858 37.7143C32.1318 37.7143 27.1431 42.7032 27.1431 48.8572C27.1431 55.0111 32.1317 60 38.2858 60C44.4399 60 49.4286 55.0111 49.4286 48.8572C49.4286 42.7032 44.4398 37.7143 38.2858 37.7143ZM45.5669 46.5677L38.7097 54.2821C38.372 54.6622 37.9015 54.8571 37.4278 54.8571C37.0515 54.8571 36.6732 54.734 36.3576 54.4813L32.0718 51.0527C31.3327 50.4618 31.2126 49.3827 31.8045 48.6436C32.3953 47.9037 33.4747 47.7839 34.2139 48.3759L37.2284 50.7874L43.0044 44.2894C43.6327 43.5821 44.7167 43.5176 45.4244 44.1472C46.1324 44.7766 46.1959 45.8597 45.5669 46.5677ZM30.5715 30H16.8573C16.3839 30 16.0002 29.6162 16.0002 29.1428V28.2857C16.0002 27.8123 16.3839 27.4285 16.8573 27.4285H30.5715C31.0448 27.4285 31.4288 27.8124 31.4288 28.2857V29.1428C31.4286 29.6162 31.0448 30 30.5715 30ZM30.5715 22.2857H16.8573C16.3839 22.2857 16.0002 21.9019 16.0002 21.4285V20.5714C16.0002 20.0979 16.3839 19.7142 16.8573 19.7142H30.5715C31.0448 19.7142 31.4288 20.098 31.4288 20.5714V21.4285C31.4286 21.902 31.0448 22.2857 30.5715 22.2857ZM26.2857 36.8572H16.8573C16.3839 36.8572 16.0002 36.4733 16.0002 36V35.1428C16.0002 34.6694 16.3839 34.2857 16.8573 34.2857H26.2857C26.7593 34.2857 27.143 34.6694 27.143 35.1428V36C27.1428 36.4733 26.7593 36.8572 26.2857 36.8572ZM24.5715 44.5715H16.8572C16.3838 44.5715 16.0001 44.1876 16.0001 43.7143V42.8572C16.0001 42.3837 16.3838 42 16.8572 42H24.5715C25.0449 42 25.4287 42.3837 25.4287 42.8572V43.7143C25.4287 44.1876 25.0449 44.5715 24.5715 44.5715ZM14.359 19.1158L11.2022 22.6672C11.0467 22.8422 10.8302 22.932 10.612 22.932C10.4388 22.932 10.2647 22.8753 10.1194 22.7589L8.14633 21.1806C7.80604 20.9085 7.75084 20.4119 8.0232 20.0716C8.29516 19.7309 8.79221 19.6758 9.13241 19.9482L10.5202 21.0583L13.1793 18.0669C13.4685 17.7413 13.9675 17.7116 14.2933 18.0014C14.6194 18.2912 14.6486 18.7898 14.359 19.1158ZM14.359 26.7419L11.2022 30.2931C11.0467 30.4681 10.8302 30.5578 10.612 30.5578C10.4388 30.5578 10.2647 30.5013 10.1194 30.3848L8.14633 28.8065C7.80604 28.5344 7.75084 28.0377 8.0232 27.6975C8.29516 27.3568 8.79221 27.3017 9.13241 27.5741L10.5202 28.6843L13.1793 25.6928C13.4685 25.3673 13.9675 25.3375 14.2933 25.6275C14.6194 25.9172 14.6486 26.4159 14.359 26.7419ZM14.359 34.0349L11.2022 37.5863C11.0467 37.7612 10.8302 37.851 10.612 37.851C10.4388 37.851 10.2647 37.7944 10.1194 37.6779L8.14633 36.0995C7.80604 35.8275 7.75084 35.3308 8.0232 34.9905C8.29516 34.6498 8.79221 34.5947 9.13241 34.8672L10.5202 35.9773L13.1793 32.9858C13.4685 32.6602 13.9675 32.6305 14.2933 32.9203C14.6194 33.2103 14.6486 33.7089 14.359 34.0349ZM14.359 41.3794L11.2022 44.9308C11.0467 45.1058 10.8302 45.1955 10.612 45.1955C10.4388 45.1955 10.2647 45.1389 10.1194 45.0225L8.14633 43.444C7.80604 43.1721 7.75084 42.6753 8.0232 42.335C8.29516 41.9943 8.79221 41.9392 9.13241 42.2117L10.5202 43.3218L13.1793 40.3303C13.4685 40.0047 13.9675 39.975 14.2933 40.2648C14.6194 40.5548 14.6486 41.0535 14.359 41.3794Z" fill="#276EF1"/>
</svg>
